<?xml version="1.0" encoding="utf-8"?>
<svg version="1.1" x="0px" y="0px" viewBox="0 0 500 500" style="enable-background:new 0 0 500 500;" xmlns="http://www.w3.org/2000/svg">
  <g id="BACKGROUND">
    <g/>
  </g>
  <g id="OBJECTS" style="" transform="matrix(-1, 0, 0, 1, 516.490051, 0)">
    <g>
      <path style="fill:none;" d="M386.716,270.142c-0.542,0.587-1.262,1.319-2.126,2.161l7.829,13.965 c1.016-6.234,1.878-12.984,2.425-20.048C392.043,266.625,388.983,267.685,386.716,270.142z"/>
      <path style="fill:none;" d="M387.606,228.495c2.313,1.697,4.735,2.884,6.95,3.723c-0.854-8.939-2.221-17.494-3.723-25.203 l-9.011,16.074C384.237,225.557,386.209,227.47,387.606,228.495z"/>
      <path style="fill:none;" d="M176.419,277.909c-0.176,4.094-0.294,6.836-0.106,7.972c0.912-1.199,2.959-5.107,5.261-9.887 c-1.661-0.167-3.345-0.336-5.052-0.508C176.487,276.346,176.452,277.155,176.419,277.909z"/>
      <polygon style="fill:none;" points="245.765,312.624 245.765,312.635 245.766,312.624 &#9;&#9;"/>
      <path style="fill:none;" d="M177.278,211.714c-0.433,1.754-0.512,7.804-0.478,14.656c2.16-0.21,4.282-0.415,6.346-0.613 C180.584,219.121,178.193,213.405,177.278,211.714z"/>
      <path style="fill:#EC1C24;" d="M125.518,306.509c-1.027-3.768-4.843-21.029-7.058-37.202c-7.289-0.845-13.625-1.627-18.407-2.296 c0.114,38.78,0.753,46.791,3.316,53.627c1.036,2.762,6.476,4.282,15.32,4.282c9.151,0,18.194-1.645,18.945-2.485 c1.239-1.652-0.073-5.756-0.982-7.118c-0.227-0.341-1.41-0.897-2.554-1.433C131.099,312.476,126.565,310.348,125.518,306.509z"/>
      <path style="fill:#EC1C24;" d="M100.048,234.674c4.876-0.67,11.094-1.427,18.108-2.228c2.15-16.799,6.286-35.55,7.362-39.497 c1.047-3.84,5.58-5.967,8.58-7.375c1.144-0.537,2.327-1.092,2.555-1.433c0.908-1.363,2.22-5.467,0.979-7.122 c-0.749-0.835-9.792-2.481-18.943-2.481c-8.843,0-14.284,1.521-15.319,4.282C100.758,185.784,100.144,193.969,100.048,234.674z"/>
      <path style="fill:#544A59;" d="M182.692,276.106c-2.943,6.173-5.64,11.09-6.558,11.09c-0.167,0-0.408-0.133-0.501-0.272 c-0.566-0.849-0.47-3.084-0.213-9.058c0.033-0.77,0.069-1.6,0.105-2.481c-1.57-0.158-3.153-0.319-4.751-0.481v21.368 c3.377-0.178,6.594-0.249,9.289-0.269c3.059-4.88,7.467-11.965,11.752-18.99C188.897,276.725,185.843,276.421,182.692,276.106z"/>
      <path style="fill:#544A59;" d="M175.804,226.467c-0.051-10.051,0.138-15.088,0.924-15.882c0.174-0.177,0.362-0.214,0.489-0.214 c0.263,0,0.496,0.149,0.692,0.444c0.669,1.003,3.366,7.368,6.258,14.844c2.655-0.255,5.214-0.499,7.653-0.73 c-4.363-8.77-8.917-17.852-12.249-24.474c-1.164,0.015-2.345,0.023-3.538,0.023c-1.795,0-3.553-0.018-5.258-0.052v26.531 C172.471,226.792,174.149,226.628,175.804,226.467z"/>
      <path style="fill:#544A59;" d="M390.632,296.081c0.527-2.611,1.041-5.365,1.527-8.233l-8.313-14.829 c-1.362,1.303-3.015,2.822-4.899,4.488l9.898,18.631C389.451,296.116,390.046,296.097,390.632,296.081z"/>
      <path style="fill:#544A59;" d="M377.909,219.037c1.129,1.176,2.19,2.28,3.186,3.306l9.442-16.843 c-0.345-1.725-0.695-3.398-1.047-5.026c-1.356-0.007-2.69-0.024-3.99-0.051l-9.07,17.073 C376.933,218.02,377.429,218.536,377.909,219.037z"/>
      <path style="fill:#EC1C24;" d="M245.791,312.134c0.985-0.072,3.578-0.208,7.168-0.395c19.501-1.019,71.304-3.723,84.641-7.765 c15.789-4.785,42.456-28.092,48.382-34.51c2.517-2.727,5.899-3.86,8.943-4.267c0.236-3.253,0.4-6.569,0.483-9.927 c-12.685,2.799-42.808,8.691-53.918,10.853c-0.129,0.372-0.263,0.72-0.411,1.016c-3.006,6.013-40.295,12.333-55.351,12.333 c-3.79,0-6.292-0.357-7.437-1.063c-1.853-1.14-3.126-4.121-4.002-7.756c-4.277-0.133-11.404-0.359-20.327-0.662 c-0.058,0.006-0.11,0.019-0.168,0.025c-0.82,0.085-1.664,0.128-2.505,0.128h-0.001c-1.429,0-2.913-0.131-4.404-0.396 c-43.449-1.512-116.961-4.435-125.842-7.168c-6.99-2.15-9.105-8.538-8.754-13.798c0.395-5.91,3.626-10.53,7.856-11.235 c5.937-0.989,78.829-5.493,125.377-8.304c1.087-0.22,2.198-0.369,3.328-0.422c0.921-0.042,1.83-0.009,2.731,0.056 c9.19-0.553,17.039-1.022,22.719-1.36c0.774-3.576,1.771-6.187,2.97-7.187c1.031-0.859,3.271-1.277,6.845-1.277 c15.509,0,52.795,8.255,55.393,10.42c0.552,0.46,1.063,1.729,1.515,3.525c13.99,1.896,41.06,6.894,54.258,9.378 c-0.139-3.042-0.353-6.06-0.623-9.04c-2.398-0.873-5.069-2.15-7.643-4.038c-2.162-1.585-5.544-5.11-9.827-9.572 c-9.799-10.209-24.608-25.637-36.703-29.334c-11.783-3.601-48.999-6.291-74.401-6.291c-12.704,0-20.832,0.679-22.885,1.911 c-4.07,2.442-11.517,14.697-17.272,24.323c-0.519,7.439-2.076,17.859-4.92,18.095c-0.126,0.011-0.251,0.016-0.376,0.016 c-1.308,0-2.529-0.59-3.532-1.706c-0.702-0.781-1.283-1.796-1.739-2.99c-14.232,1.239-119.181,10.976-125.736,13.785 c-2.994,1.283-5,7.336-4.666,14.08c0.263,5.317,2.121,11.498,6.545,12.895c7.685,2.427,96.587,11.156,122.971,13.71 c0.43-2.738,1.322-4.977,2.624-6.426c1.098-1.222,2.449-1.818,3.908-1.69c2.443,0.203,3.935,7.916,4.637,14.803 c7.519,12.289,17.511,27.225,20.122,27.225v0.489h0.001L245.791,312.134z"/>
      <path style="fill:#F48020;" d="M256.777,229.898c2.622,0.899,4.815,2.267,6.616,3.945c3.586-0.149,6.98-0.269,9.92-0.362 c0.222-1.77,0.481-3.432,0.777-4.946c-4.743,0.283-10.99,0.656-18.257,1.093C256.148,229.718,256.47,229.793,256.777,229.898z"/>
      <path style="fill:#F48020;" d="M273.358,265.643c-2.591-0.12-5.683-0.27-9.033-0.446c-1.694,1.69-3.812,3.056-6.387,3.922 c6.942,0.234,12.523,0.413,16.121,0.526C273.782,268.359,273.552,267.011,273.358,265.643z"/>
      <path style="fill:#F48020;" d="M121.335,261.626c8.373,2.576,77.474,5.403,121.242,6.961c-3.177-1.166-6.144-3.014-8.411-5.584 c-3.856-0.439-6.705-0.912-7.795-1.407c-3.121-1.419-4.367-7.25-4.203-12.068c0.168-4.958,1.875-10.829,6.159-12.436 c1.148-0.43,3.142-0.818,5.701-1.166c1.899-2.323,4.467-4.19,7.413-5.43c-46.561,2.82-115.492,7.098-121.134,8.038 c-3.711,0.619-6.665,4.957-7.023,10.316C112.959,253.729,114.903,259.647,121.335,261.626z"/>
      <path style="fill:#3E3643;" d="M223.168,249.561c-0.184,5.409,1.338,10.088,3.618,11.124c0.928,0.422,3.272,0.83,6.489,1.217 c-0.808-1.086-1.509-2.274-2.046-3.591c-2.447-5.998-2.072-13.688,0.956-19.592c0.295-0.576,0.637-1.128,1.004-1.665 c-1.999,0.297-3.567,0.621-4.509,0.974C224.855,239.462,223.325,244.926,223.168,249.561z"/>
      <path style="fill:#3E3643;" d="M264.343,234.815c4.618,4.987,6.234,12.172,5.539,18.242c-0.442,3.865-1.913,7.963-4.675,11.179 c2.951,0.154,5.683,0.287,8.014,0.396c-0.232-1.811-0.404-3.631-0.527-5.35c-0.568-7.942-0.369-17.226,0.498-24.789 C270.543,234.578,267.527,234.685,264.343,234.815z"/>
      <path style="fill:#F48020;" d="M395.473,250.554c0-2.389-0.055-4.773-0.151-7.146c-12.965-2.436-39.971-7.421-54.056-9.361 c1.721,7.98,2.386,23.873,0.547,30.994c11.527-2.245,41.379-8.093,53.623-10.798C395.459,253.018,395.473,251.788,395.473,250.554 z"/>
      <path style="fill:#3E3643;" d="M151.67,300.112c-4.132,1.431-5.908,7.855-5.526,13.463c0.323,4.753,2.307,10.159,6.904,11.079 c4.283,0.856,13.09,1.39,22.985,1.39c9.797,0,18.768-0.521,23.996-1.393c6.839-1.14,7.573-10.082,7.636-12.795 c0.155-6.758-2.25-13.01-5.253-13.652c-2.799-0.601-10.764-1.208-20.57-1.208C168.388,296.996,157.391,298.132,151.67,300.112z"/>
      <path style="fill:#3E3643;" d="M153.048,198.09c4.283,0.856,13.09,1.389,22.985,1.389c9.797,0,18.768-0.521,23.996-1.392 c6.838-1.14,7.573-10.082,7.636-12.795c0.155-6.757-2.25-13.01-5.253-13.653c-2.8-0.6-10.765-1.208-20.572-1.208 c-13.453,0-24.45,1.136-30.17,3.116c-4.132,1.43-5.908,7.855-5.526,13.463C146.467,191.764,148.45,197.17,153.048,198.09z"/>
      <path style="fill:#3E3643;" d="M367.999,324.654c4.283,0.856,13.09,1.39,22.984,1.39c8.73,0,16.797-0.414,22.15-1.121 c-5.962,0.266-12.143,0.42-16.458,0.42c-0.001,0-0.001,0-0.001,0c-12.914,0-13.107-0.966-13.223-1.544 c-0.017-0.088-0.011-0.179,0.019-0.264c0.066-0.188,3.7-10.661,6.953-26.447c-10.525,0.304-19.015,1.366-23.803,3.024 c-4.132,1.431-5.907,7.855-5.525,13.464C361.418,318.329,363.402,323.734,367.999,324.654z"/>
      <path style="fill:#3E3643;" d="M367.999,198.09c4.034,0.807,12.083,1.325,21.273,1.383c-1.67-7.62-3.35-14.071-4.57-18.752 c-1.925-7.384-2.056-8.1-1.561-8.512c0.66-0.55,5.335-1.238,11.435-1.767c-12.44,0.118-22.552,1.234-27.955,3.104 c-4.131,1.43-5.907,7.855-5.525,13.463C361.418,191.764,363.402,197.17,367.999,198.09z"/>
      <path style="fill:#F48020;" d="M278.813,277.559c0.678,0.417,2.428,0.914,6.914,0.914c16.052,0,51.806-6.479,54.456-11.78 c3.486-6.973,1.208-34.344-1.316-36.448c-2.135-1.779-39.032-10.188-54.753-10.188c-4.092,0-5.632,0.568-6.204,1.045 c-3.247,2.705-5.376,21.938-4.218,38.108C274.416,269.313,276.282,276.001,278.813,277.559z"/>
      <path style="fill:#EC1C24;" d="M430.781,322.358c1.2-1.205,0.792-3.864,0.313-6.26c-0.183-0.911-1.568-1.466-2.909-2.001 c-1.65-0.659-3.356-1.341-3.356-2.908c0-1.269-0.265-34.992-0.522-67.607c-0.227-28.862-0.44-56.123-0.44-57.034 c0-1.257,1.765-2.814,3.634-4.461c1.044-0.921,2.622-2.313,2.622-2.757c0-1.21-0.351-5.947-0.452-7.299 c-3.92-0.924-9.796-1.412-17.035-1.412c-13.361,0-27.029,1.617-28.741,2.306c0.018,0.799,0.837,3.941,1.775,7.544 c3.507,13.456,10.804,41.455,10.804,70.084c0,36.702-10.782,69.551-11.956,73.015c0.523,0.235,2.753,0.774,12.158,0.774 C411.021,324.343,429.532,323.142,430.781,322.358z"/>
      <path style="fill:#28212C;" d="M432.074,315.903c-0.288-1.443-1.931-2.1-3.518-2.734c-1.402-0.561-2.728-1.09-2.728-1.979 c0-1.273-0.265-34.998-0.522-67.614c-0.227-28.86-0.44-56.119-0.44-57.026c0-0.806,1.904-2.485,3.295-3.711 c1.891-1.668,2.961-2.653,2.961-3.507c0-1.446-0.463-7.482-0.483-7.738c-0.016-0.214-0.168-0.395-0.377-0.446 c-4.05-1.013-9.98-1.526-17.627-1.526c-1.622,0-3.299,0.027-4.993,0.074c-3.331-0.167-7.092-0.263-10.851-0.263 c-7.969,0-22.526,0.412-30.497,3.171c-4.606,1.595-6.604,8.49-6.197,14.477c0.349,5.122,2.557,10.962,7.707,11.992 c3.351,0.67,9.411,1.143,16.578,1.325l-8.682,16.343c-9.798-10.164-23.467-23.799-34.922-27.299 c-11.866-3.625-49.222-6.335-74.694-6.335c-9.114,0-20.572,0.356-23.4,2.053c-4.058,2.435-10.775,13.258-16.632,23.023 c0.042-0.896,0.066-1.72,0.072-2.43c0.066-7.953-1.363-8.096-1.901-8.149c-3.844-0.383-8.846,5.822-9.851,15.202 c-0.409,3.811-0.164,7.275,0.653,9.979c-3.523,0.31-11.626,1.05-22.138,2.045c-4.702-9.455-9.477-18.967-12.206-24.391 c7.991-0.137,15.077-0.625,19.512-1.364c5.126-0.855,8.293-5.998,8.471-13.759c0.15-6.535-2.069-13.802-6.042-14.654 c-3.325-0.713-12.065-1.23-20.782-1.23c-7.969,0-22.527,0.412-30.497,3.171c-4.606,1.595-6.604,8.489-6.197,14.476 c0.349,5.122,2.556,10.962,7.706,11.993c3.406,0.681,9.607,1.158,16.923,1.333l0.003,26.652 c-16.911,1.661-35.508,3.561-50.601,5.273c2.149-16.666,6.239-35.203,7.306-39.118c0.926-3.393,5.208-5.403,8.04-6.732 c1.553-0.729,2.58-1.211,2.962-1.784c0.927-1.391,2.622-6.042,0.946-8.277c-1.03-1.374-11.363-2.881-19.743-2.881 c-6.572,0-14.728,0.855-16.256,4.93c-2.666,7.109-3.289,15.36-3.385,56.346c-5.24,0.735-8.774,1.358-9.818,1.806 c-3.868,1.658-5.58,8.826-5.272,15.049c0.28,5.653,2.33,12.247,7.243,13.798c1.121,0.354,3.875,0.834,7.852,1.403 c0.114,39.063,0.763,47.141,3.38,54.119c1.528,4.075,9.684,4.931,16.256,4.931c0,0,0.001,0,0.001,0 c8.379,0,18.711-1.508,19.741-2.882c1.676-2.235-0.019-6.886-0.946-8.276c-0.382-0.573-1.408-1.055-2.962-1.783 c-2.833-1.33-7.115-3.34-8.041-6.733c-1.019-3.735-4.79-20.786-7-36.82c14.755,1.701,33.165,3.635,50.299,5.378l0.002,21.528 c-6.63,0.387-13.7,1.195-18.441,2.836c-4.606,1.595-6.604,8.489-6.197,14.477c0.348,5.121,2.556,10.961,7.706,11.991 c4.343,0.869,13.225,1.409,23.181,1.409c9.849,0,18.881-0.526,24.16-1.406c5.126-0.854,8.293-5.998,8.471-13.759 c0.15-6.534-2.069-13.802-6.042-14.653c-3.324-0.712-12.064-1.229-20.78-1.229c-0.188,0-0.397,0.001-0.592,0.002 c3.103-4.937,7.471-11.937,11.698-18.872c8.763,0.867,16.237,1.593,21.392,2.091c-0.222,1.98-0.219,4.184,0.032,6.52 c0.975,9.103,5.704,15.218,9.508,15.219c0.001,0,0.001,0,0.001,0c0.116,0,0.229-0.006,0.342-0.018 c0.538-0.054,1.967-0.196,1.901-8.148c-0.012-1.494-0.103-3.474-0.277-5.639c6.153,9.973,16.553,25.983,19.918,25.983 c0.012,0,0.087-0.002,0.1-0.003c0.974-0.072,3.563-0.208,7.146-0.395c19.535-1.021,71.425-3.729,84.878-7.807 c11.747-3.56,29.395-17.204,40.286-26.746l9.56,17.994c-7.412,0.309-15.974,1.097-21.44,2.988 c-4.606,1.595-6.604,8.49-6.196,14.477c0.348,5.122,2.556,10.961,7.706,11.991c4.342,0.869,13.225,1.409,23.18,1.409 c9.85,0,18.882-0.526,24.16-1.406c0.981-0.164,1.889-0.487,2.72-0.953c7.086-0.402,12.961-0.96,13.594-1.593 C433.038,321.512,432.629,318.674,432.074,315.903z M366.62,300.112c4.788-1.657,13.278-2.72,23.803-3.024 c-3.252,15.785-6.886,26.259-6.953,26.447c-0.029,0.085-0.036,0.176-0.019,0.264c0.115,0.578,0.309,1.544,13.223,1.544 c0,0,0,0,0.001,0c4.315,0,10.496-0.154,16.458-0.42c-5.354,0.707-13.42,1.121-22.15,1.121c-9.895,0-18.701-0.533-22.984-1.39 c-4.597-0.92-6.581-6.325-6.904-11.078C360.713,307.968,362.488,301.543,366.62,300.112z M366.62,173.547 c5.404-1.87,15.516-2.986,27.955-3.104c-6.099,0.529-10.775,1.216-11.435,1.767c-0.494,0.413-0.363,1.128,1.561,8.512 c1.22,4.681,2.9,11.131,4.57,18.752c-9.19-0.058-17.239-0.576-21.273-1.383c-4.597-0.92-6.581-6.326-6.904-11.08 C360.713,181.403,362.489,174.977,366.62,173.547z M390.834,207.015c1.502,7.709,2.868,16.264,3.723,25.203 c-2.215-0.84-4.637-2.027-6.95-3.723c-1.397-1.025-3.369-2.938-5.783-5.406L390.834,207.015z M389.489,200.474 c0.352,1.628,0.703,3.301,1.047,5.026l-9.442,16.843c-0.996-1.025-2.057-2.13-3.186-3.306c-0.481-0.501-0.977-1.017-1.48-1.541 l9.07-17.073C386.799,200.45,388.133,200.467,389.489,200.474z M251.288,269.146L251.288,269.146 c-7.248,0-15.975-3.467-19.134-11.211c-2.305-5.652-1.936-13.191,0.919-18.759c2.751-5.365,8.962-9.036,15.821-9.353 c0.348-0.016,0.696-0.024,1.044-0.024c2.298,0,4.489,0.352,6.514,1.047c9.894,3.394,13.382,13.834,12.436,22.098 c-0.813,7.102-5.232,15.055-15.198,16.081C252.903,269.104,252.096,269.146,251.288,269.146z M113.285,248.851 c0.358-5.359,3.312-9.697,7.023-10.316c5.642-0.941,74.572-5.218,121.134-8.038c-2.946,1.24-5.514,3.107-7.413,5.43 c-2.559,0.348-4.553,0.735-5.701,1.166c-4.285,1.607-5.991,7.478-6.159,12.436c-0.164,4.818,1.082,10.649,4.203,12.068 c1.09,0.495,3.938,0.968,7.795,1.407c2.267,2.57,5.234,4.419,8.411,5.584c-43.768-1.558-112.869-4.385-121.242-6.961 C114.903,259.647,112.959,253.729,113.285,248.851z M233.188,237.054c-0.367,0.537-0.709,1.089-1.004,1.665 c-3.027,5.904-3.402,13.594-0.956,19.592c0.537,1.317,1.238,2.505,2.046,3.591c-3.217-0.386-5.561-0.795-6.489-1.217 c-2.28-1.036-3.801-5.715-3.618-11.124c0.157-4.636,1.687-10.099,5.511-11.533C229.621,237.675,231.189,237.352,233.188,237.054z M272.694,259.281c0.123,1.719,0.295,3.539,0.527,5.35c-2.331-0.109-5.063-0.242-8.014-0.396 c2.762-3.217,4.233-7.314,4.675-11.179c0.695-6.069-0.922-13.255-5.539-18.242c3.184-0.13,6.2-0.237,8.849-0.323 C272.326,242.055,272.126,251.339,272.694,259.281z M273.313,233.481c-2.94,0.093-6.334,0.213-9.92,0.362 c-1.801-1.678-3.994-3.046-6.616-3.945c-0.307-0.105-0.629-0.18-0.944-0.271c7.267-0.437,13.514-0.81,18.257-1.093 C273.794,230.049,273.535,231.711,273.313,233.481z M264.325,265.197c3.35,0.177,6.442,0.327,9.033,0.446 c0.194,1.367,0.424,2.716,0.701,4.001c-3.597-0.113-9.179-0.292-16.121-0.526C260.513,268.253,262.631,266.887,264.325,265.197z M273.692,259.21c-1.158-16.171,0.971-35.403,4.218-38.108c0.572-0.477,2.112-1.045,6.204-1.045 c15.721,0,52.618,8.409,54.753,10.188c2.524,2.104,4.803,29.475,1.316,36.448c-2.65,5.301-38.404,11.78-54.456,11.78 c-4.486,0-6.236-0.497-6.914-0.914C276.282,276.001,274.416,269.313,273.692,259.21z M341.266,234.046 c14.085,1.94,41.091,6.924,54.056,9.361c0.096,2.373,0.151,4.757,0.151,7.146c0,1.234-0.013,2.464-0.037,3.689 c-12.244,2.706-42.096,8.553-53.623,10.798C343.652,257.919,342.987,242.026,341.266,234.046z M384.59,272.302 c0.864-0.842,1.584-1.573,2.126-2.161c2.267-2.456,5.327-3.517,8.128-3.922c-0.547,7.064-1.409,13.814-2.425,20.048 L384.59,272.302z M383.846,273.019l8.313,14.829c-0.485,2.867-0.999,5.621-1.527,8.233c-0.586,0.016-1.181,0.035-1.788,0.057 l-9.898-18.631C380.831,275.841,382.483,274.322,383.846,273.019z M396.675,324.343c-9.405,0-11.635-0.539-12.158-0.774 c1.174-3.464,11.956-36.313,11.956-73.015c0-28.629-7.297-56.628-10.804-70.084c-0.938-3.603-1.757-6.745-1.775-7.544 c1.712-0.688,15.38-2.306,28.741-2.306c7.239,0,13.115,0.487,17.035,1.412c0.102,1.352,0.452,6.09,0.452,7.299 c0,0.444-1.578,1.836-2.622,2.757c-1.869,1.648-3.634,3.204-3.634,4.461c0,0.911,0.214,28.172,0.44,57.034 c0.257,32.614,0.522,66.338,0.522,67.607c0,1.567,1.706,2.249,3.356,2.908c1.341,0.535,2.727,1.09,2.909,2.001 c0.479,2.396,0.888,5.055-0.313,6.26C429.532,323.142,411.021,324.343,396.675,324.343z M215.366,212.911 c0.878-8.199,5.219-14.326,8.514-14.326c0.082,0,0.163,0.004,0.243,0.012c0.224,0.022,1.049,1.301,1.001,7.146 c-0.08,9.781-2.358,21.541-4.201,21.695c-1.144,0.089-2.185-0.365-3.081-1.362C215.7,223.692,214.751,218.648,215.366,212.911z M151.67,173.547c5.72-1.98,16.717-3.116,30.17-3.116c9.807,0,17.772,0.607,20.572,1.208c3.003,0.643,5.408,6.896,5.253,13.653 c-0.063,2.713-0.797,11.655-7.636,12.795c-5.228,0.871-14.199,1.392-23.996,1.392c-9.894,0-18.702-0.532-22.985-1.389 c-4.598-0.92-6.581-6.327-6.904-11.08C145.762,181.403,147.538,174.977,151.67,173.547z M176.033,200.479 c1.194,0,2.374-0.008,3.538-0.023c3.332,6.622,7.886,15.703,12.249,24.474c-2.439,0.231-4.997,0.475-7.653,0.73 c-2.892-7.476-5.59-13.841-6.258-14.844c-0.196-0.295-0.429-0.444-0.692-0.444c-0.127,0-0.315,0.037-0.489,0.214 c-0.785,0.795-0.975,5.831-0.924,15.882c-1.655,0.161-3.333,0.325-5.029,0.491v-26.531 C172.479,200.461,174.238,200.479,176.033,200.479z M177.278,211.714c0.915,1.691,3.306,7.407,5.867,14.043 c-2.063,0.198-4.185,0.403-6.346,0.613C176.766,219.518,176.845,213.468,177.278,211.714z M118.689,174.538 c9.151,0,18.194,1.646,18.943,2.481c1.241,1.656-0.07,5.76-0.979,7.122c-0.227,0.341-1.411,0.896-2.555,1.433 c-3,1.408-7.533,3.535-8.58,7.375c-1.076,3.947-5.212,22.698-7.362,39.497c-7.014,0.801-13.232,1.558-18.108,2.228 c0.096-40.705,0.71-48.89,3.322-55.855C104.405,176.058,109.846,174.538,118.689,174.538z M136.653,315.316 c0.909,1.362,2.22,5.466,0.982,7.118c-0.752,0.84-9.794,2.485-18.945,2.485c-8.844,0-14.284-1.52-15.32-4.282 c-2.563-6.836-3.202-14.848-3.316-53.627c4.781,0.669,11.118,1.452,18.407,2.296c2.215,16.173,6.03,33.434,7.058,37.202 c1.047,3.839,5.581,5.967,8.581,7.375C135.243,314.42,136.426,314.976,136.653,315.316z M181.842,296.996 c9.806,0,17.771,0.607,20.57,1.208c3.003,0.643,5.408,6.895,5.253,13.652c-0.063,2.713-0.797,11.655-7.636,12.795 c-5.228,0.872-14.199,1.393-23.996,1.393c-9.894,0-18.702-0.533-22.985-1.39c-4.598-0.92-6.581-6.326-6.904-11.079 c-0.382-5.607,1.394-12.032,5.526-13.463C157.391,298.132,168.388,296.996,181.842,296.996z M170.774,296.273v-21.368 c1.598,0.162,3.181,0.323,4.751,0.481c-0.036,0.881-0.072,1.71-0.105,2.481c-0.257,5.974-0.353,8.209,0.213,9.058 c0.093,0.139,0.334,0.272,0.501,0.272c0.918,0,3.615-4.916,6.558-11.09c3.15,0.315,6.205,0.619,9.123,0.908 c-4.285,7.025-8.693,14.11-11.752,18.99C177.368,296.024,174.151,296.095,170.774,296.273z M176.313,285.881 c-0.188-1.136-0.07-3.878,0.106-7.972c0.032-0.754,0.067-1.564,0.103-2.423c1.707,0.172,3.391,0.341,5.052,0.508 C179.272,280.774,177.225,284.682,176.313,285.881z M225.123,292.799c0.048,5.845-0.777,7.123-1.001,7.146 c-0.08,0.008-0.161,0.012-0.243,0.012c-3.295-0.001-7.636-6.127-8.514-14.326c-0.614-5.736,0.335-10.78,2.477-13.164 c0.819-0.912,1.757-1.374,2.788-1.374c0.097,0,0.194,0.004,0.293,0.012C222.766,271.257,225.043,283.017,225.123,292.799z M245.765,312.624v-0.489c-2.611,0-12.603-14.935-20.122-27.225c-0.702-6.886-2.195-14.6-4.637-14.803 c-1.459-0.129-2.81,0.468-3.908,1.69c-1.302,1.45-2.194,3.689-2.624,6.426c-26.384-2.553-115.286-11.282-122.971-13.71 c-4.424-1.397-6.282-7.577-6.545-12.895c-0.334-6.744,1.672-12.797,4.666-14.08c6.555-2.809,111.504-12.546,125.736-13.785 c0.456,1.194,1.037,2.209,1.739,2.99c1.003,1.116,2.224,1.706,3.532,1.706c0.124,0,0.25-0.005,0.376-0.016 c2.844-0.237,4.401-10.657,4.92-18.095c5.755-9.626,13.201-21.881,17.272-24.323c2.053-1.232,10.181-1.911,22.885-1.911 c25.402,0,62.618,2.69,74.401,6.291c12.095,3.696,26.904,19.124,36.703,29.334c4.283,4.462,7.665,7.986,9.827,9.572 c2.574,1.887,5.245,3.165,7.643,4.038c0.27,2.98,0.483,5.998,0.623,9.04c-13.198-2.484-40.268-7.482-54.258-9.378 c-0.452-1.797-0.963-3.066-1.515-3.525c-2.599-2.165-39.885-10.42-55.393-10.42c-3.574,0-5.814,0.418-6.845,1.277 c-1.2,1-2.196,3.611-2.97,7.187c-5.68,0.338-13.529,0.806-22.719,1.36c-0.901-0.066-1.809-0.098-2.731-0.056 c-1.131,0.052-2.242,0.201-3.328,0.422c-46.548,2.811-119.44,7.314-125.377,8.304c-4.231,0.705-7.462,5.325-7.856,11.235 c-0.352,5.26,1.764,11.647,8.754,13.798c8.881,2.733,82.393,5.656,125.842,7.168c1.49,0.266,2.975,0.396,4.404,0.396h0.001 c0.841,0,1.685-0.043,2.505-0.128c0.058-0.006,0.11-0.019,0.168-0.025c8.923,0.302,16.05,0.529,20.327,0.662 c0.876,3.635,2.149,6.616,4.002,7.756c1.145,0.705,3.647,1.063,7.437,1.063c15.056,0,52.345-6.32,55.351-12.333 c0.148-0.296,0.283-0.645,0.411-1.016c11.109-2.162,41.233-8.055,53.918-10.853c-0.083,3.358-0.247,6.674-0.483,9.927 c-3.043,0.407-6.426,1.54-8.943,4.267c-5.926,6.418-32.593,29.725-48.382,34.51c-13.337,4.042-65.14,6.746-84.641,7.765 c-3.59,0.188-6.183,0.323-7.168,0.395L245.765,312.624v0.011V312.624z"/>
      <path style="fill:#EC1C24;" d="M220.923,271.103c-0.098-0.008-0.196-0.012-0.293-0.012c-1.031,0-1.969,0.462-2.788,1.374 c-2.142,2.384-3.091,7.428-2.477,13.164c0.878,8.199,5.219,14.325,8.514,14.326c0.082,0,0.163-0.004,0.243-0.012 c0.224-0.022,1.049-1.301,1.001-7.146C225.043,283.017,222.766,271.257,220.923,271.103z"/>
      <path style="fill:#EC1C24;" d="M217.842,226.076c0.896,0.997,1.937,1.451,3.081,1.362c1.843-0.154,4.12-11.914,4.201-21.695 c0.048-5.845-0.777-7.124-1.001-7.146c-0.081-0.008-0.161-0.012-0.243-0.012c-3.294,0-7.635,6.126-8.514,14.326 C214.751,218.648,215.7,223.692,217.842,226.076z"/>
      <path style="fill:#E1C7AC;" d="M268.89,252.942c0.945-8.264-2.543-18.704-12.436-22.098c-2.024-0.695-4.216-1.047-6.514-1.047 c-0.349,0-0.696,0.008-1.044,0.024c-6.86,0.317-13.07,3.988-15.821,9.353c-2.855,5.569-3.225,13.107-0.919,18.759 c3.159,7.744,11.885,11.211,19.133,11.211h0.001c0.808,0,1.615-0.041,2.403-0.122C263.657,267.997,268.077,260.044,268.89,252.942 z M244.875,265.957c-0.003,0-0.007,0-0.011,0c-0.046,0-0.091-0.006-0.137-0.02c-0.127-0.035-12.682-3.751-12.418-16.105 c0.263-12.322,9.676-15.583,9.771-15.615c0.179-0.059,0.377-0.013,0.51,0.121c0.134,0.133,0.181,0.33,0.122,0.51 c-0.06,0.184-5.905,18.479,2.491,30.225c0.111,0.092,0.181,0.229,0.181,0.385C245.384,265.736,245.135,265.972,244.875,265.957z"/>
      <path style="fill:#3E3643;" d="M241.464,235.563c-2.287,1.12-7.953,4.843-8.155,14.29c-0.196,9.149,7.127,13.256,10.28,14.597 C237.125,253.987,240.391,239.509,241.464,235.563z"/>
      <path style="fill:#28212C;" d="M242.712,234.847c0.059-0.18,0.012-0.377-0.122-0.51c-0.133-0.133-0.331-0.179-0.51-0.121 c-0.095,0.032-9.508,3.294-9.771,15.615c-0.264,12.354,12.291,16.07,12.418,16.105c0.045,0.014,0.091,0.02,0.137,0.02 c0.003,0,0.007,0,0.011,0c0.26,0.015,0.509-0.221,0.509-0.5c0-0.155-0.07-0.293-0.181-0.385 C236.807,253.326,242.652,235.031,242.712,234.847z M243.589,264.45c-3.153-1.341-10.476-5.447-10.28-14.597 c0.202-9.448,5.868-13.17,8.155-14.29C240.391,239.509,237.125,253.987,243.589,264.45z"/>
      <path style="fill:#FFFFFF;" d="M145.061,241.4c-2.579-0.385-5.606-0.024-7.787-0.018c-4.551,0.012-9.141,0.366-13.502,1.746 c-2.923,0.924-6.103,2.85-6.296,5.909c-0.107,1.683,0.784,3.313,2.03,4.448c1.246,1.135,2.818,1.844,4.395,2.439 c4.574,1.727,24.038,7.344,26.1,0.325c1.154-3.93,2.354-10.99-1.865-13.787C147.277,241.894,146.214,241.572,145.061,241.4z"/>
      <path style="fill:#FFFFFF;" d="M157.254,241.154c-0.44-1.237-2.068-1.237-2.509,0c-0.894,2.51-0.582,5.32-0.572,7.955 c0.011,2.96,0.068,5.918,0.121,8.877c-0.02,1.113,0.843,1.66,1.705,1.646c0.862,0.013,1.725-0.534,1.705-1.646 c0.053-2.959,0.11-5.918,0.121-8.877C157.836,246.474,158.148,243.665,157.254,241.154z"/>
      <path style="fill:#FFFFFF;" d="M184.504,241.154c-0.44-1.237-2.068-1.237-2.509,0c-0.894,2.51-0.582,5.32-0.572,7.955 c0.011,2.96,0.068,5.918,0.121,8.877c-0.02,1.113,0.843,1.66,1.705,1.646c0.862,0.013,1.725-0.534,1.705-1.646 c0.053-2.959,0.11-5.918,0.121-8.877C185.086,246.474,185.398,243.665,184.504,241.154z"/>
      <path style="fill:#FFFFFF;" d="M178.292,247.571c-0.882-0.423-1.681-0.97-2.575-1.37c-0.801-0.359-1.773,0.402-1.267,1.267 c0.101,0.172,0.214,0.332,0.329,0.49c-1.521,0.307-3.046,0.498-4.641,0.556c-1.822,0.066-3.791-0.28-5.543,0.251 c-0.11-0.317-0.239-0.627-0.429-0.915c-0.444-0.67-1.692-0.483-1.625,0.44c0.084,1.161-0.173,2.36-0.187,3.524 c-0.011,0.877,0.206,1.632,0.965,2.139c0.228,0.132,0.475,0.199,0.739,0.2c-0.659,0.004,0.239,0.035,0.187,0.035 c0.307,0.003,0.554-0.072,0.821-0.216c0.533-0.287,0.659-0.93,0.44-1.43c-0.003-0.197-0.027-0.393-0.08-0.597 c1.817,0.332,3.882,0.048,5.647-0.058c2.328-0.141,4.674-0.541,6.838-1.421C179.039,250.007,179.674,248.233,178.292,247.571z"/>
      <path style="fill:#FFFFFF;" d="M422.839,175.864c-5.235-1.447-11.14-0.137-16.49,0.13c-5.613,0.28-11.511-0.071-17.011,1.168 c-0.585,0.132-0.582,1.041,0,1.175c10.606,2.442,22.121,0.982,32.912,1.877C424.795,180.426,425.19,176.514,422.839,175.864z"/>
      <path style="fill:#FFFFFF;" d="M407.81,184.939c-1.764-1.595-4.155-1.296-6.384-1.065c-2.121,0.22-5.073,0.164-6.943,1.171 c-0.299,0.161-0.343,0.595-0.106,0.829c1.866,1.839,5.455,1.563,7.843,1.576C403.132,187.454,410.806,187.648,407.81,184.939z"/>
      <path style="fill:#FFFFFF;" d="M423.464,318.913c-5.235,1.447-11.14,0.137-16.49-0.13c-5.613-0.28-11.511,0.071-17.011-1.168 c-0.585-0.132-0.582-1.041,0-1.175c10.606-2.442,22.121-0.982,32.912-1.877C425.42,314.352,425.815,318.264,423.464,318.913z"/>
      <path style="fill:#FFFFFF;" d="M408.435,309.839c-1.764,1.595-4.155,1.296-6.384,1.065c-2.121-0.22-5.073-0.163-6.943-1.171 c-0.299-0.161-0.343-0.595-0.106-0.829c1.866-1.839,5.455-1.563,7.843-1.576C403.757,307.323,411.431,307.13,408.435,309.839z"/>
      <g>
        <path style="fill:#A40D12;" d="M254.332,300.351c-2.588-5.879-10.439-15.846-12.262-16.968c-4.496-2.768,0.715,7.309,1.064,7.882 c2.018,3.316,4.684,9.327,7.9,11.576C253.946,304.877,256.386,305.018,254.332,300.351z"/>
        <path style="fill:#A40D12;" d="M274.832,300.351c-2.588-5.879-10.439-15.846-12.262-16.968c-4.496-2.768,0.715,7.309,1.064,7.882 c2.018,3.316,4.684,9.327,7.9,11.576C274.446,304.877,276.886,305.018,274.832,300.351z"/>
        <path style="fill:#A40D12;" d="M294.383,299.176c-2.414-5.483-9.736-14.778-11.436-15.825c-4.193-2.582,0.667,6.816,0.992,7.351 c1.882,3.092,4.368,8.699,7.368,10.796C294.023,303.397,296.299,303.528,294.383,299.176z"/>
        <path style="fill:#A40D12;" d="M314.409,298.588c-2.327-5.285-9.384-14.244-11.023-15.253c-4.042-2.489,0.643,6.57,0.956,7.085 c1.814,2.981,4.211,8.385,7.102,10.406C314.062,302.656,316.256,302.783,314.409,298.588z"/>
        <path style="fill:#A40D12;" d="M332,294.984c-1.792-4.071-7.228-10.971-8.49-11.749c-3.113-1.917,0.495,5.06,0.737,5.457 c1.398,2.296,3.243,6.458,5.47,8.015C331.733,298.117,333.423,298.215,332,294.984z"/>
        <path style="fill:#A40D12;" d="M343.291,286.368c-1.027-1.424-2.198-2.983-3.562-4.097c-0.762-0.623-2.013-0.064-1.724,1.003 c0.428,1.578,1.47,2.951,2.227,4.385c0.595,1.128,1.535,3.989,3.389,2.903C345.313,289.571,344.097,287.486,343.291,286.368z"/>
      </g>
      <g>
        <path style="fill:#A40D12;" d="M254.332,199.348c-2.588,5.879-10.439,15.846-12.262,16.968c-4.496,2.768,0.715-7.309,1.064-7.882 c2.018-3.316,4.684-9.327,7.9-11.576C253.946,194.822,256.386,194.682,254.332,199.348z"/>
        <path style="fill:#A40D12;" d="M274.832,199.348c-2.588,5.879-10.439,15.846-12.262,16.968c-4.496,2.768,0.715-7.309,1.064-7.882 c2.018-3.316,4.684-9.327,7.9-11.576C274.446,194.822,276.886,194.682,274.832,199.348z"/>
        <path style="fill:#A40D12;" d="M294.383,200.524c-2.414,5.483-9.736,14.778-11.436,15.825c-4.193,2.582,0.667-6.816,0.992-7.351 c1.882-3.092,4.368-8.699,7.368-10.796C294.023,196.303,296.299,196.171,294.383,200.524z"/>
        <path style="fill:#A40D12;" d="M314.409,201.112c-2.327,5.285-9.384,14.244-11.023,15.253c-4.042,2.489,0.643-6.57,0.956-7.085 c1.814-2.981,4.211-8.385,7.102-10.406C314.062,197.043,316.256,196.916,314.409,201.112z"/>
        <path style="fill:#A40D12;" d="M332,204.716c-1.792,4.07-7.228,10.971-8.49,11.748c-3.113,1.917,0.495-5.06,0.737-5.457 c1.398-2.296,3.243-6.458,5.47-8.015C331.733,201.582,333.423,201.485,332,204.716z"/>
        <path style="fill:#A40D12;" d="M343.291,213.331c-1.027,1.424-2.198,2.984-3.562,4.098c-0.762,0.623-2.013,0.064-1.724-1.003 c0.428-1.578,1.47-2.951,2.227-4.385c0.595-1.128,1.535-3.989,3.389-2.903C345.313,210.128,344.097,212.213,343.291,213.331z"/>
      </g>
      <path style="fill:#FFFFFF;" d="M298.857,237.967c-3.143-1.078-6.462-1.609-9.8-1.608c-3.217,0.001-8.967-1.199-10.928,2.15 c-0.948,1.618-0.661,3.799-0.565,5.566c0.153,2.812-0.6,13.65,2.034,15.211c1.163,0.689,2.61,0.597,3.957,0.484 c6.767-0.57,13.744-1.199,19.747-4.374c2.919-1.544,5.759-4.087,5.899-7.386c0.156-3.655-3.039-6.57-6.272-8.282 C301.615,239.033,300.253,238.446,298.857,237.967z"/>
      <path style="fill:#FFFFFF;" d="M335.084,246.406c-3.791-0.084-7.584-0.084-11.376-0.104c-3.227-0.017-6.956-0.619-9.961,0.696 c-0.76,0.332-0.76,1.671,0,2.003c2.634,1.153,5.689,0.719,8.523,0.704c4.271-0.022,8.543-0.017,12.814-0.111 c1.043,0.023,1.554-0.785,1.538-1.594C336.638,247.191,336.128,246.383,335.084,246.406z"/>
    </g>
    <g/>
    <g>
      <path style="fill:none;" d="M373.615,381.122c-0.181,0.173-0.365,0.348-0.548,0.524c-0.065,1.124-0.226,2.255-0.476,3.379 c1.242-0.358,2.422-0.88,3.384-1.652c2.285-1.833,3.427-5.887,4.338-9.202C378.37,376.581,375.743,379.092,373.615,381.122z"/>
      <path style="fill:none;" d="M350.635,350.839c-1.924,1.046-3.658,2.277-4.539,3.796c-1.169,2.014-1.352,4.669-1.212,6.961 c0.621-0.263,1.253-0.504,1.902-0.7C348.128,357.141,349.537,353.37,350.635,350.839z"/>
    </g>
    <g/>
  </g>
</svg>