<svg enable-background="new 0 0 500 500" viewBox="0 0 500 500" xmlns="http://www.w3.org/2000/svg"><g transform="matrix(-1 0 0 1 516.490051 0)"><path d="m386.716 270.142c-.542.587-1.262 1.319-2.126 2.161l7.829 13.965c1.016-6.234 1.878-12.984 2.425-20.048-2.801.405-5.861 1.465-8.128 3.922z" fill="none"/><path d="m387.606 228.495c2.313 1.697 4.735 2.884 6.95 3.723-.854-8.939-2.221-17.494-3.723-25.203l-9.011 16.074c2.415 2.468 4.387 4.381 5.784 5.406z" fill="none"/><path d="m176.419 277.909c-.176 4.094-.294 6.836-.106 7.972.912-1.199 2.959-5.107 5.261-9.887-1.661-.167-3.345-.336-5.052-.508-.035.86-.07 1.669-.103 2.423z" fill="none"/><path d="m245.765 312.624v.011l.001-.011z" fill="none"/><path d="m177.278 211.714c-.433 1.754-.512 7.804-.478 14.656 2.16-.21 4.282-.415 6.346-.613-2.562-6.636-4.953-12.352-5.868-14.043z" fill="none"/><path d="m125.518 306.509c-1.027-3.768-4.843-21.029-7.058-37.202-7.289-.845-13.625-1.627-18.407-2.296.114 38.78.753 46.791 3.316 53.627 1.036 2.762 6.476 4.282 15.32 4.282 9.151 0 18.194-1.645 18.945-2.485 1.239-1.652-.073-5.756-.982-7.118-.227-.341-1.41-.897-2.554-1.433-2.999-1.408-7.533-3.536-8.58-7.375z" fill="#5757eb"/><path d="m100.048 234.674c4.876-.67 11.094-1.427 18.108-2.228 2.15-16.799 6.286-35.55 7.362-39.497 1.047-3.84 5.58-5.967 8.58-7.375 1.144-.537 2.327-1.092 2.555-1.433.908-1.363 2.22-5.467.979-7.122-.749-.835-9.792-2.481-18.943-2.481-8.843 0-14.284 1.521-15.319 4.282-2.612 6.964-3.226 15.149-3.322 55.854z" fill="#5757eb"/><path d="m182.692 276.106c-2.943 6.173-5.64 11.09-6.558 11.09-.167 0-.408-.133-.501-.272-.566-.849-.47-3.084-.213-9.058.033-.77.069-1.6.105-2.481-1.57-.158-3.153-.319-4.751-.481v21.368c3.377-.178 6.594-.249 9.289-.269 3.059-4.88 7.467-11.965 11.752-18.99-2.918-.288-5.972-.592-9.123-.907z" fill="#544a59"/><path d="m175.804 226.467c-.051-10.051.138-15.088.924-15.882.174-.177.362-.214.489-.214.263 0 .496.149.692.444.669 1.003 3.366 7.368 6.258 14.844 2.655-.255 5.214-.499 7.653-.73-4.363-8.77-8.917-17.852-12.249-24.474-1.164.015-2.345.023-3.538.023-1.795 0-3.553-.018-5.258-.052v26.531c1.696-.165 3.374-.329 5.029-.49z" fill="#544a59"/><path d="m390.632 296.081c.527-2.611 1.041-5.365 1.527-8.233l-8.313-14.829c-1.362 1.303-3.015 2.822-4.899 4.488l9.898 18.631c.606-.022 1.201-.041 1.787-.057z" fill="#544a59"/><path d="m377.909 219.037c1.129 1.176 2.19 2.28 3.186 3.306l9.442-16.843c-.345-1.725-.695-3.398-1.047-5.026-1.356-.007-2.69-.024-3.99-.051l-9.07 17.073c.503.524.999 1.04 1.479 1.541z" fill="#544a59"/><path d="m245.791 312.134c.985-.072 3.578-.208 7.168-.395 19.501-1.019 71.304-3.723 84.641-7.765 15.789-4.785 42.456-28.092 48.382-34.51 2.517-2.727 5.899-3.86 8.943-4.267.236-3.253.4-6.569.483-9.927-12.685 2.799-42.808 8.691-53.918 10.853-.129.372-.263.72-.411 1.016-3.006 6.013-40.295 12.333-55.351 12.333-3.79 0-6.292-.357-7.437-1.063-1.853-1.14-3.126-4.121-4.002-7.756-4.277-.133-11.404-.359-20.327-.662-.058.006-.11.019-.168.025-.82.085-1.664.128-2.505.128h-.001c-1.429 0-2.913-.131-4.404-.396-43.449-1.512-116.961-4.435-125.842-7.168-6.99-2.15-9.105-8.538-8.754-13.798.395-5.91 3.626-10.53 7.856-11.235 5.937-.989 78.829-5.493 125.377-8.304 1.087-.22 2.198-.369 3.328-.422.921-.042 1.83-.009 2.731.056 9.19-.553 17.039-1.022 22.719-1.36.774-3.576 1.771-6.187 2.97-7.187 1.031-.859 3.271-1.277 6.845-1.277 15.509 0 52.795 8.255 55.393 10.42.552.46 1.063 1.729 1.515 3.525 13.99 1.896 41.06 6.894 54.258 9.378-.139-3.042-.353-6.06-.623-9.04-2.398-.873-5.069-2.15-7.643-4.038-2.162-1.585-5.544-5.11-9.827-9.572-9.799-10.209-24.608-25.637-36.703-29.334-11.783-3.601-48.999-6.291-74.401-6.291-12.704 0-20.832.679-22.885 1.911-4.07 2.442-11.517 14.697-17.272 24.323-.519 7.439-2.076 17.859-4.92 18.095-.126.011-.251.016-.376.016-1.308 0-2.529-.59-3.532-1.706-.702-.781-1.283-1.796-1.739-2.99-14.232 1.239-119.181 10.976-125.736 13.785-2.994 1.283-5 7.336-4.666 14.08.263 5.317 2.121 11.498 6.545 12.895 7.685 2.427 96.587 11.156 122.971 13.71.43-2.738 1.322-4.977 2.624-6.426 1.098-1.222 2.449-1.818 3.908-1.69 2.443.203 3.935 7.916 4.637 14.803 7.519 12.289 17.511 27.225 20.122 27.225v.489h.001z" fill="#5757eb"/><path d="m256.777 229.898c2.622.899 4.815 2.267 6.616 3.945 3.586-.149 6.98-.269 9.92-.362.222-1.77.481-3.432.777-4.946-4.743.283-10.99.656-18.257 1.093.315.09.637.165.944.27z" fill="#9378ff"/><path d="m273.358 265.643c-2.591-.12-5.683-.27-9.033-.446-1.694 1.69-3.812 3.056-6.387 3.922 6.942.234 12.523.413 16.121.526-.277-1.286-.507-2.634-.701-4.002z" fill="#9378ff"/><path d="m121.335 261.626c8.373 2.576 77.474 5.403 121.242 6.961-3.177-1.166-6.144-3.014-8.411-5.584-3.856-.439-6.705-.912-7.795-1.407-3.121-1.419-4.367-7.25-4.203-12.068.168-4.958 1.875-10.829 6.159-12.436 1.148-.43 3.142-.818 5.701-1.166 1.899-2.323 4.467-4.19 7.413-5.43-46.561 2.82-115.492 7.098-121.134 8.038-3.711.619-6.665 4.957-7.023 10.316-.325 4.879 1.619 10.797 8.051 12.776z" fill="#9378ff"/><path d="m223.168 249.561c-.184 5.409 1.338 10.088 3.618 11.124.928.422 3.272.83 6.489 1.217-.808-1.086-1.509-2.274-2.046-3.591-2.447-5.998-2.072-13.688.956-19.592.295-.576.637-1.128 1.004-1.665-1.999.297-3.567.621-4.509.974-3.825 1.434-5.355 6.898-5.512 11.533z" fill="#3e3643"/><path d="m264.343 234.815c4.618 4.987 6.234 12.172 5.539 18.242-.442 3.865-1.913 7.963-4.675 11.179 2.951.154 5.683.287 8.014.396-.232-1.811-.404-3.631-.527-5.35-.568-7.942-.369-17.226.498-24.789-2.649.085-5.665.192-8.849.322z" fill="#3e3643"/><path d="m395.473 250.554c0-2.389-.055-4.773-.151-7.146-12.965-2.436-39.971-7.421-54.056-9.361 1.721 7.98 2.386 23.873.547 30.994 11.527-2.245 41.379-8.093 53.623-10.798.023-1.225.037-2.455.037-3.689z" fill="#9378ff"/><path d="m151.67 300.112c-4.132 1.431-5.908 7.855-5.526 13.463.323 4.753 2.307 10.159 6.904 11.079 4.283.856 13.09 1.39 22.985 1.39 9.797 0 18.768-.521 23.996-1.393 6.839-1.14 7.573-10.082 7.636-12.795.155-6.758-2.25-13.01-5.253-13.652-2.799-.601-10.764-1.208-20.57-1.208-13.454-0-24.451 1.136-30.172 3.116z" fill="#3e3643"/><path d="m153.048 198.09c4.283.856 13.09 1.389 22.985 1.389 9.797 0 18.768-.521 23.996-1.392 6.838-1.14 7.573-10.082 7.636-12.795.155-6.757-2.25-13.01-5.253-13.653-2.8-.6-10.765-1.208-20.572-1.208-13.453 0-24.45 1.136-30.17 3.116-4.132 1.43-5.908 7.855-5.526 13.463.323 4.754 2.306 10.16 6.904 11.08z" fill="#3e3643"/><path d="m367.999 324.654c4.283.856 13.09 1.39 22.984 1.39 8.73 0 16.797-.414 22.15-1.121-5.962.266-12.143.42-16.458.42-.001 0-.001 0-.001 0-12.914 0-13.107-.966-13.223-1.544-.017-.088-.011-.179.019-.264.066-.188 3.7-10.661 6.953-26.447-10.525.304-19.015 1.366-23.803 3.024-4.132 1.431-5.907 7.855-5.525 13.464.323 4.753 2.307 10.158 6.904 11.078z" fill="#3e3643"/><path d="m367.999 198.09c4.034.807 12.083 1.325 21.273 1.383-1.67-7.62-3.35-14.071-4.57-18.752-1.925-7.384-2.056-8.1-1.561-8.512.66-.55 5.335-1.238 11.435-1.767-12.44.118-22.552 1.234-27.955 3.104-4.131 1.43-5.907 7.855-5.525 13.463.322 4.755 2.306 10.161 6.903 11.081z" fill="#3e3643"/><path d="m278.813 277.559c.678.417 2.428.914 6.914.914 16.052 0 51.806-6.479 54.456-11.78 3.486-6.973 1.208-34.344-1.316-36.448-2.135-1.779-39.032-10.188-54.753-10.188-4.092 0-5.632.568-6.204 1.045-3.247 2.705-5.376 21.938-4.218 38.108.724 10.103 2.59 16.791 5.121 18.349z" fill="#9378ff"/><path d="m430.781 322.358c1.2-1.205.792-3.864.313-6.26-.183-.911-1.568-1.466-2.909-2.001-1.65-.659-3.356-1.341-3.356-2.908 0-1.269-.265-34.992-.522-67.607-.227-28.862-.44-56.123-.44-57.034 0-1.257 1.765-2.814 3.634-4.461 1.044-.921 2.622-2.313 2.622-2.757 0-1.21-.351-5.947-.452-7.299-3.92-.924-9.796-1.412-17.035-1.412-13.361 0-27.029 1.617-28.741 2.306.018.799.837 3.941 1.775 7.544 3.507 13.456 10.804 41.455 10.804 70.084 0 36.702-10.782 69.551-11.956 73.015.523.235 2.753.774 12.158.774 14.345.001 32.856-1.2 34.105-1.984z" fill="#5757eb"/><path d="m432.074 315.903c-.288-1.443-1.931-2.1-3.518-2.734-1.402-.561-2.728-1.09-2.728-1.979 0-1.273-.265-34.998-.522-67.614-.227-28.86-.44-56.119-.44-57.026 0-.806 1.904-2.485 3.295-3.711 1.891-1.668 2.961-2.653 2.961-3.507 0-1.446-.463-7.482-.483-7.738-.016-.214-.168-.395-.377-.446-4.05-1.013-9.98-1.526-17.627-1.526-1.622 0-3.299.027-4.993.074-3.331-.167-7.092-.263-10.851-.263-7.969 0-22.526.412-30.497 3.171-4.606 1.595-6.604 8.49-6.197 14.477.349 5.122 2.557 10.962 7.707 11.992 3.351.67 9.411 1.143 16.578 1.325l-8.682 16.343c-9.798-10.164-23.467-23.799-34.922-27.299-11.866-3.625-49.222-6.335-74.694-6.335-9.114 0-20.572.356-23.4 2.053-4.058 2.435-10.775 13.258-16.632 23.023.042-.896.066-1.72.072-2.43.066-7.953-1.363-8.096-1.901-8.149-3.844-.383-8.846 5.822-9.851 15.202-.409 3.811-.164 7.275.653 9.979-3.523.31-11.626 1.05-22.138 2.045-4.702-9.455-9.477-18.967-12.206-24.391 7.991-.137 15.077-.625 19.512-1.364 5.126-.855 8.293-5.998 8.471-13.759.15-6.535-2.069-13.802-6.042-14.654-3.325-.713-12.065-1.23-20.782-1.23-7.969 0-22.527.412-30.497 3.171-4.606 1.595-6.604 8.489-6.197 14.476.349 5.122 2.556 10.962 7.706 11.993 3.406.681 9.607 1.158 16.923 1.333l.003 26.652c-16.911 1.661-35.508 3.561-50.601 5.273 2.149-16.666 6.239-35.203 7.306-39.118.926-3.393 5.208-5.403 8.04-6.732 1.553-.729 2.58-1.211 2.962-1.784.927-1.391 2.622-6.042.946-8.277-1.03-1.374-11.363-2.881-19.743-2.881-6.572 0-14.728.855-16.256 4.93-2.666 7.109-3.289 15.36-3.385 56.346-5.24.735-8.774 1.358-9.818 1.806-3.868 1.658-5.58 8.826-5.272 15.049.28 5.653 2.33 12.247 7.243 13.798 1.121.354 3.875.834 7.852 1.403.114 39.063.763 47.141 3.38 54.119 1.528 4.075 9.684 4.931 16.256 4.931h.001c8.379 0 18.711-1.508 19.741-2.882 1.676-2.235-.019-6.886-.946-8.276-.382-.573-1.408-1.055-2.962-1.783-2.833-1.33-7.115-3.34-8.041-6.733-1.019-3.735-4.79-20.786-7-36.82 14.755 1.701 33.165 3.635 50.299 5.378l.002 21.528c-6.63.387-13.7 1.195-18.441 2.836-4.606 1.595-6.604 8.489-6.197 14.477.348 5.121 2.556 10.961 7.706 11.991 4.343.869 13.225 1.409 23.181 1.409 9.849 0 18.881-.526 24.16-1.406 5.126-.854 8.293-5.998 8.471-13.759.15-6.534-2.069-13.802-6.042-14.653-3.324-.712-12.064-1.229-20.78-1.229-.188 0-.397.001-.592.002 3.103-4.937 7.471-11.937 11.698-18.872 8.763.867 16.237 1.593 21.392 2.091-.222 1.98-.219 4.184.032 6.52.975 9.103 5.704 15.218 9.508 15.219h.001c.116 0 .229-.006.342-.018.538-.054 1.967-.196 1.901-8.148-.012-1.494-.103-3.474-.277-5.639 6.153 9.973 16.553 25.983 19.918 25.983.012 0 .087-.002.1-.003.974-.072 3.563-.208 7.146-.395 19.535-1.021 71.425-3.729 84.878-7.807 11.747-3.56 29.395-17.204 40.286-26.746l9.56 17.994c-7.412.309-15.974 1.097-21.44 2.988-4.606 1.595-6.604 8.49-6.196 14.477.348 5.122 2.556 10.961 7.706 11.991 4.342.869 13.225 1.409 23.18 1.409 9.85 0 18.882-.526 24.16-1.406.981-.164 1.889-.487 2.72-.953 7.086-.402 12.961-.96 13.594-1.593 1.581-1.58 1.172-4.418.617-7.189zm-65.454-15.791c4.788-1.657 13.278-2.72 23.803-3.024-3.252 15.785-6.886 26.259-6.953 26.447-.029.085-.036.176-.019.264.115.578.309 1.544 13.223 1.544h.001c4.315 0 10.496-.154 16.458-.42-5.354.707-13.42 1.121-22.15 1.121-9.895 0-18.701-.533-22.984-1.39-4.597-.92-6.581-6.325-6.904-11.078-.382-5.608 1.393-12.033 5.525-13.464zm0-126.565c5.404-1.87 15.516-2.986 27.955-3.104-6.099.529-10.775 1.216-11.435 1.767-.494.413-.363 1.128 1.561 8.512 1.22 4.681 2.9 11.131 4.57 18.752-9.19-.058-17.239-.576-21.273-1.383-4.597-.92-6.581-6.326-6.904-11.08-.381-5.608 1.395-12.034 5.526-13.464zm24.214 33.468c1.502 7.709 2.868 16.264 3.723 25.203-2.215-.84-4.637-2.027-6.95-3.723-1.397-1.025-3.369-2.938-5.783-5.406zm-1.345-6.541c.352 1.628.703 3.301 1.047 5.026l-9.442 16.843c-.996-1.025-2.057-2.13-3.186-3.306-.481-.501-.977-1.017-1.48-1.541l9.07-17.073c1.301.027 2.635.044 3.991.051zm-138.201 68.672c-7.248 0-15.975-3.467-19.134-11.211-2.305-5.652-1.936-13.191.919-18.759 2.751-5.365 8.962-9.036 15.821-9.353.348-.016.696-.024 1.044-.024 2.298 0 4.489.352 6.514 1.047 9.894 3.394 13.382 13.834 12.436 22.098-.813 7.102-5.232 15.055-15.198 16.081-.787.079-1.594.121-2.402.121zm-138.003-20.295c.358-5.359 3.312-9.697 7.023-10.316 5.642-.941 74.572-5.218 121.134-8.038-2.946 1.24-5.514 3.107-7.413 5.43-2.559.348-4.553.735-5.701 1.166-4.285 1.607-5.991 7.478-6.159 12.436-.164 4.818 1.082 10.649 4.203 12.068 1.09.495 3.938.968 7.795 1.407 2.267 2.57 5.234 4.419 8.411 5.584-43.768-1.558-112.869-4.385-121.242-6.961-6.433-1.98-8.377-7.898-8.051-12.776zm119.903-11.797c-.367.537-.709 1.089-1.004 1.665-3.027 5.904-3.402 13.594-.956 19.592.537 1.317 1.238 2.505 2.046 3.591-3.217-.386-5.561-.795-6.489-1.217-2.28-1.036-3.801-5.715-3.618-11.124.157-4.636 1.687-10.099 5.511-11.533.943-.353 2.511-.676 4.51-.974zm39.506 22.227c.123 1.719.295 3.539.527 5.35-2.331-.109-5.063-.242-8.014-.396 2.762-3.217 4.233-7.314 4.675-11.179.695-6.069-.922-13.255-5.539-18.242 3.184-.13 6.2-.237 8.849-.323-.866 7.564-1.066 16.848-.498 24.79zm.619-25.8c-2.94.093-6.334.213-9.92.362-1.801-1.678-3.994-3.046-6.616-3.945-.307-.105-.629-.18-.944-.271 7.267-.437 13.514-.81 18.257-1.093-.296 1.515-.555 3.177-.777 4.947zm-8.988 31.716c3.35.177 6.442.327 9.033.446.194 1.367.424 2.716.701 4.001-3.597-.113-9.179-.292-16.121-.526 2.575-.865 4.693-2.231 6.387-3.921zm9.367-5.987c-1.158-16.171.971-35.403 4.218-38.108.572-.477 2.112-1.045 6.204-1.045 15.721 0 52.618 8.409 54.753 10.188 2.524 2.104 4.803 29.475 1.316 36.448-2.65 5.301-38.404 11.78-54.456 11.78-4.486 0-6.236-.497-6.914-.914-2.531-1.558-4.397-8.246-5.121-18.349zm67.574-25.164c14.085 1.94 41.091 6.924 54.056 9.361.096 2.373.151 4.757.151 7.146 0 1.234-.013 2.464-.037 3.689-12.244 2.706-42.096 8.553-53.623 10.798 1.839-7.121 1.174-23.014-.547-30.994zm43.324 38.256c.864-.842 1.584-1.573 2.126-2.161 2.267-2.456 5.327-3.517 8.128-3.922-.547 7.064-1.409 13.814-2.425 20.048zm-.744.717 8.313 14.829c-.485 2.867-.999 5.621-1.527 8.233-.586.016-1.181.035-1.788.057l-9.898-18.631c1.885-1.666 3.537-3.185 4.9-4.488zm12.829 51.324c-9.405 0-11.635-.539-12.158-.774 1.174-3.464 11.956-36.313 11.956-73.015 0-28.629-7.297-56.628-10.804-70.084-.938-3.603-1.757-6.745-1.775-7.544 1.712-.688 15.38-2.306 28.741-2.306 7.239 0 13.115.487 17.035 1.412.102 1.352.452 6.09.452 7.299 0 .444-1.578 1.836-2.622 2.757-1.869 1.648-3.634 3.204-3.634 4.461 0 .911.214 28.172.44 57.034.257 32.614.522 66.338.522 67.607 0 1.567 1.706 2.249 3.356 2.908 1.341.535 2.727 1.09 2.909 2.001.479 2.396.888 5.055-.313 6.26-1.248.783-19.759 1.984-34.105 1.984zm-181.309-111.432c.878-8.199 5.219-14.326 8.514-14.326.082 0 .163.004.243.012.224.022 1.049 1.301 1.001 7.146-.08 9.781-2.358 21.541-4.201 21.695-1.144.089-2.185-.365-3.081-1.362-2.142-2.384-3.091-7.428-2.476-13.165zm-63.696-39.364c5.72-1.98 16.717-3.116 30.17-3.116 9.807 0 17.772.607 20.572 1.208 3.003.643 5.408 6.896 5.253 13.653-.063 2.713-.797 11.655-7.636 12.795-5.228.871-14.199 1.392-23.996 1.392-9.894 0-18.702-.532-22.985-1.389-4.598-.92-6.581-6.327-6.904-11.08-.382-5.607 1.394-12.033 5.526-13.463zm24.363 26.932c1.194 0 2.374-.008 3.538-.023 3.332 6.622 7.886 15.703 12.249 24.474-2.439.231-4.997.475-7.653.73-2.892-7.476-5.59-13.841-6.258-14.844-.196-.295-.429-.444-.692-.444-.127 0-.315.037-.489.214-.785.795-.975 5.831-.924 15.882-1.655.161-3.333.325-5.029.491v-26.531c1.704.033 3.463.051 5.258.051zm1.245 11.235c.915 1.691 3.306 7.407 5.867 14.043-2.063.198-4.185.403-6.346.613-.033-6.852.046-12.902.479-14.656zm-58.589-37.176c9.151 0 18.194 1.646 18.943 2.481 1.241 1.656-.07 5.76-.979 7.122-.227.341-1.411.896-2.555 1.433-3 1.408-7.533 3.535-8.58 7.375-1.076 3.947-5.212 22.698-7.362 39.497-7.014.801-13.232 1.558-18.108 2.228.096-40.705.71-48.89 3.322-55.855 1.035-2.761 6.476-4.281 15.319-4.281zm17.964 140.778c.909 1.362 2.22 5.466.982 7.118-.752.84-9.794 2.485-18.945 2.485-8.844 0-14.284-1.52-15.32-4.282-2.563-6.836-3.202-14.848-3.316-53.627 4.781.669 11.118 1.452 18.407 2.296 2.215 16.173 6.03 33.434 7.058 37.202 1.047 3.839 5.581 5.967 8.581 7.375 1.143.537 2.326 1.093 2.553 1.433zm45.189-18.32c9.806 0 17.771.607 20.57 1.208 3.003.643 5.408 6.895 5.253 13.652-.063 2.713-.797 11.655-7.636 12.795-5.228.872-14.199 1.393-23.996 1.393-9.894 0-18.702-.533-22.985-1.39-4.598-.92-6.581-6.326-6.904-11.079-.382-5.607 1.394-12.032 5.526-13.463 5.721-1.98 16.718-3.116 30.172-3.116zm-11.068-.723v-21.368c1.598.162 3.181.323 4.751.481-.036.881-.072 1.71-.105 2.481-.257 5.974-.353 8.209.213 9.058.093.139.334.272.501.272.918 0 3.615-4.916 6.558-11.09 3.15.315 6.205.619 9.123.908-4.285 7.025-8.693 14.11-11.752 18.99-2.695.019-5.912.09-9.289.268zm5.539-10.392c-.188-1.136-.07-3.878.106-7.972.032-.754.067-1.564.103-2.423 1.707.172 3.391.341 5.052.508-2.302 4.78-4.349 8.688-5.261 9.887zm48.81 6.918c.048 5.845-.777 7.123-1.001 7.146-.08.008-.161.012-.243.012-3.295-.001-7.636-6.127-8.514-14.326-.614-5.736.335-10.78 2.477-13.164.819-.912 1.757-1.374 2.788-1.374.097 0 .194.004.293.012 1.843.152 4.12 11.912 4.2 21.694zm20.642 19.825v-.489c-2.611 0-12.603-14.935-20.122-27.225-.702-6.886-2.195-14.6-4.637-14.803-1.459-.129-2.81.468-3.908 1.69-1.302 1.45-2.194 3.689-2.624 6.426-26.384-2.553-115.286-11.282-122.971-13.71-4.424-1.397-6.282-7.577-6.545-12.895-.334-6.744 1.672-12.797 4.666-14.08 6.555-2.809 111.504-12.546 125.736-13.785.456 1.194 1.037 2.209 1.739 2.99 1.003 1.116 2.224 1.706 3.532 1.706.124 0 .25-.005.376-.016 2.844-.237 4.401-10.657 4.92-18.095 5.755-9.626 13.201-21.881 17.272-24.323 2.053-1.232 10.181-1.911 22.885-1.911 25.402 0 62.618 2.69 74.401 6.291 12.095 3.696 26.904 19.124 36.703 29.334 4.283 4.462 7.665 7.986 9.827 9.572 2.574 1.887 5.245 3.165 7.643 4.038.27 2.98.483 5.998.623 9.04-13.198-2.484-40.268-7.482-54.258-9.378-.452-1.797-.963-3.066-1.515-3.525-2.599-2.165-39.885-10.42-55.393-10.42-3.574 0-5.814.418-6.845 1.277-1.2 1-2.196 3.611-2.97 7.187-5.68.338-13.529.806-22.719 1.36-.901-.066-1.809-.098-2.731-.056-1.131.052-2.242.201-3.328.422-46.548 2.811-119.44 7.314-125.377 8.304-4.231.705-7.462 5.325-7.856 11.235-.352 5.26 1.764 11.647 8.754 13.798 8.881 2.733 82.393 5.656 125.842 7.168 1.49.266 2.975.396 4.404.396h.001c.841 0 1.685-.043 2.505-.128.058-.006.11-.019.168-.025 8.923.302 16.05.529 20.327.662.876 3.635 2.149 6.616 4.002 7.756 1.145.705 3.647 1.063 7.437 1.063 15.056 0 52.345-6.32 55.351-12.333.148-.296.283-.645.411-1.016 11.109-2.162 41.233-8.055 53.918-10.853-.083 3.358-.247 6.674-.483 9.927-3.043.407-6.426 1.54-8.943 4.267-5.926 6.418-32.593 29.725-48.382 34.51-13.337 4.042-65.14 6.746-84.641 7.765-3.59.188-6.183.323-7.168.395l-.027.487v.011z" fill="#28212c"/><path d="m220.923 271.103c-.098-.008-.196-.012-.293-.012-1.031 0-1.969.462-2.788 1.374-2.142 2.384-3.091 7.428-2.477 13.164.878 8.199 5.219 14.325 8.514 14.326.082 0 .163-.004.243-.012.224-.022 1.049-1.301 1.001-7.146-.08-9.78-2.357-21.54-4.2-21.694z" fill="#5757eb"/><path d="m217.842 226.076c.896.997 1.937 1.451 3.081 1.362 1.843-.154 4.12-11.914 4.201-21.695.048-5.845-.777-7.124-1.001-7.146-.081-.008-.161-.012-.243-.012-3.294 0-7.635 6.126-8.514 14.326-.615 5.737.334 10.781 2.476 13.165z" fill="#5757eb"/><path d="m268.89 252.942c.945-8.264-2.543-18.704-12.436-22.098-2.024-.695-4.216-1.047-6.514-1.047-.349 0-.696.008-1.044.024-6.86.317-13.07 3.988-15.821 9.353-2.855 5.569-3.225 13.107-.919 18.759 3.159 7.744 11.885 11.211 19.133 11.211h.001c.808 0 1.615-.041 2.403-.122 9.964-1.025 14.384-8.978 15.197-16.08zm-24.015 13.015c-.003 0-.007 0-.011 0-.046 0-.091-.006-.137-.02-.127-.035-12.682-3.751-12.418-16.105.263-12.322 9.676-15.583 9.771-15.615.179-.059.377-.013.51.121.134.133.181.33.122.51-.06.184-5.905 18.479 2.491 30.225.111.092.181.229.181.385-0 .278-.249.514-.509.499z" fill="#e1c7ac"/><path d="m241.464 235.563c-2.287 1.12-7.953 4.843-8.155 14.29-.196 9.149 7.127 13.256 10.28 14.597-6.464-10.463-3.198-24.941-2.125-28.887z" fill="#3e3643"/><path d="m242.712 234.847c.059-.18.012-.377-.122-.51-.133-.133-.331-.179-.51-.121-.095.032-9.508 3.294-9.771 15.615-.264 12.354 12.291 16.07 12.418 16.105.045.014.091.02.137.02h.011c.26.015.509-.221.509-.5 0-.155-.07-.293-.181-.385-8.396-11.745-2.551-30.04-2.491-30.224zm.877 29.603c-3.153-1.341-10.476-5.447-10.28-14.597.202-9.448 5.868-13.17 8.155-14.29-1.073 3.946-4.339 18.424 2.125 28.887z" fill="#28212c"/><path d="m145.061 241.4c-2.579-.385-5.606-.024-7.787-.018-4.551.012-9.141.366-13.502 1.746-2.923.924-6.103 2.85-6.296 5.909-.107 1.683.784 3.313 2.03 4.448s2.818 1.844 4.395 2.439c4.574 1.727 24.038 7.344 26.1.325 1.154-3.93 2.354-10.99-1.865-13.787-.859-.568-1.922-.89-3.075-1.062z" fill="#fff"/><path d="m422.839 175.864c-5.235-1.447-11.14-.137-16.49.13-5.613.28-11.511-.071-17.011 1.168-.585.132-.582 1.041 0 1.175 10.606 2.442 22.121.982 32.912 1.877 2.545.212 2.94-3.7.589-4.35z" fill="#fff"/><path d="m407.81 184.939c-1.764-1.595-4.155-1.296-6.384-1.065-2.121.22-5.073.164-6.943 1.171-.299.161-.343.595-.106.829 1.866 1.839 5.455 1.563 7.843 1.576.912.004 8.586.198 5.59-2.511z" fill="#fff"/><path d="m423.464 318.913c-5.235 1.447-11.14.137-16.49-.13-5.613-.28-11.511.071-17.011-1.168-.585-.132-.582-1.041 0-1.175 10.606-2.442 22.121-.982 32.912-1.877 2.545-.211 2.94 3.701.589 4.35z" fill="#fff"/><path d="m408.435 309.839c-1.764 1.595-4.155 1.296-6.384 1.065-2.121-.22-5.073-.163-6.943-1.171-.299-.161-.343-.595-.106-.829 1.866-1.839 5.455-1.563 7.843-1.576.912-.005 8.586-.198 5.59 2.511z" fill="#fff"/><g fill="#28212c"><path d="m254.332 300.351c-2.588-5.879-10.439-15.846-12.262-16.968-4.496-2.768.715 7.309 1.064 7.882 2.018 3.316 4.684 9.327 7.9 11.576 2.912 2.036 5.352 2.177 3.298-2.49z"/><path d="m274.832 300.351c-2.588-5.879-10.439-15.846-12.262-16.968-4.496-2.768.715 7.309 1.064 7.882 2.018 3.316 4.684 9.327 7.9 11.576 2.912 2.036 5.352 2.177 3.298-2.49z"/><path d="m294.383 299.176c-2.414-5.483-9.736-14.778-11.436-15.825-4.193-2.582.667 6.816.992 7.351 1.882 3.092 4.368 8.699 7.368 10.796 2.716 1.899 4.992 2.03 3.076-2.322z"/><path d="m314.409 298.588c-2.327-5.285-9.384-14.244-11.023-15.253-4.042-2.489.643 6.57.956 7.085 1.814 2.981 4.211 8.385 7.102 10.406 2.618 1.83 4.812 1.957 2.965-2.238z"/><path d="m332 294.984c-1.792-4.071-7.228-10.971-8.49-11.749-3.113-1.917.495 5.06.737 5.457 1.398 2.296 3.243 6.458 5.47 8.015 2.016 1.41 3.706 1.508 2.283-1.723z"/><path d="m343.291 286.368c-1.027-1.424-2.198-2.983-3.562-4.097-.762-.623-2.013-.064-1.724 1.003.428 1.578 1.47 2.951 2.227 4.385.595 1.128 1.535 3.989 3.389 2.903 1.692-.991.476-3.076-.33-4.194z"/><path d="m254.332 199.348c-2.588 5.879-10.439 15.846-12.262 16.968-4.496 2.768.715-7.309 1.064-7.882 2.018-3.316 4.684-9.327 7.9-11.576 2.912-2.036 5.352-2.176 3.298 2.49z"/><path d="m274.832 199.348c-2.588 5.879-10.439 15.846-12.262 16.968-4.496 2.768.715-7.309 1.064-7.882 2.018-3.316 4.684-9.327 7.9-11.576 2.912-2.036 5.352-2.176 3.298 2.49z"/><path d="m294.383 200.524c-2.414 5.483-9.736 14.778-11.436 15.825-4.193 2.582.667-6.816.992-7.351 1.882-3.092 4.368-8.699 7.368-10.796 2.716-1.899 4.992-2.031 3.076 2.322z"/><path d="m314.409 201.112c-2.327 5.285-9.384 14.244-11.023 15.253-4.042 2.489.643-6.57.956-7.085 1.814-2.981 4.211-8.385 7.102-10.406 2.618-1.831 4.812-1.958 2.965 2.238z"/><path d="m332 204.716c-1.792 4.07-7.228 10.971-8.49 11.748-3.113 1.917.495-5.06.737-5.457 1.398-2.296 3.243-6.458 5.47-8.015 2.016-1.41 3.706-1.507 2.283 1.724z"/><path d="m343.291 213.331c-1.027 1.424-2.198 2.984-3.562 4.098-.762.623-2.013.064-1.724-1.003.428-1.578 1.47-2.951 2.227-4.385.595-1.128 1.535-3.989 3.389-2.903 1.692.99.476 3.075-.33 4.193z"/></g><path d="m298.857 237.967c-3.143-1.078-6.462-1.609-9.8-1.608-3.217.001-8.967-1.199-10.928 2.15-.948 1.618-.661 3.799-.565 5.566.153 2.812-.6 13.65 2.034 15.211 1.163.689 2.61.597 3.957.484 6.767-.57 13.744-1.199 19.747-4.374 2.919-1.544 5.759-4.087 5.899-7.386.156-3.655-3.039-6.57-6.272-8.282-1.314-.695-2.676-1.282-4.072-1.761z" fill="#fff"/><path d="m335.084 246.406c-3.791-.084-7.584-.084-11.376-.104-3.227-.017-6.956-.619-9.961.696-.76.332-.76 1.671 0 2.003 2.634 1.153 5.689.719 8.523.704 4.271-.022 8.543-.017 12.814-.111 1.043.023 1.554-.785 1.538-1.594.016-.809-.494-1.617-1.538-1.594z" fill="#fff"/><path d="m373.615 381.122c-.181.173-.365.348-.548.524-.065 1.124-.226 2.255-.476 3.379 1.242-.358 2.422-.88 3.384-1.652 2.285-1.833 3.427-5.887 4.338-9.202-1.943 2.41-4.57 4.921-6.698 6.951z" fill="none"/><path d="m350.635 350.839c-1.924 1.046-3.658 2.277-4.539 3.796-1.169 2.014-1.352 4.669-1.212 6.961.621-.263 1.253-.504 1.902-.7 1.342-3.755 2.751-7.526 3.849-10.057z" fill="none"/></g></svg>